<svg xmlns="http://www.w3.org/2000/svg" viewBox="0 0 400 300" fill="none">
  <defs>
    <linearGradient id="festiveGrad" x1="0%" y1="0%" x2="100%" y2="100%">
      <stop offset="0%" style="stop-color:#FF6B6B;stop-opacity:1" />
      <stop offset="50%" style="stop-color:#FFD93D;stop-opacity:1" />
      <stop offset="100%" style="stop-color:#6BCB77;stop-opacity:1" />
    </linearGradient>
  </defs>
  <!-- Festive background -->
  <rect width="400" height="300" fill="#1A1A2E"/>
  <!-- Confetti/streamers -->
  <rect x="30" y="20" width="8" height="25" fill="#FF6B6B" transform="rotate(15 34 32)"/>
  <rect x="80" y="40" width="6" height="20" fill="#FFD93D" transform="rotate(-10 83 50)"/>
  <rect x="150" y="15" width="8" height="25" fill="#6BCB77" transform="rotate(20 154 27)"/>
  <rect x="250" y="30" width="6" height="20" fill="#4ECDC4" transform="rotate(-15 253 40)"/>
  <rect x="320" y="25" width="8" height="25" fill="#FF6B6B" transform="rotate(10 324 37)"/>
  <rect x="370" y="45" width="6" height="20" fill="#FFD93D" transform="rotate(-20 373 55)"/>
  <!-- Dancer 1 - Traditional costume -->
  <circle cx="100" cy="150" r="20" fill="#DEB887"/>
  <path d="M80 170 L75 230 L85 230 L90 190 L100 230 L110 190 L115 230 L125 230 L120 170 Z" fill="#FF4500"/>
  <!-- Dancer headdress -->
  <path d="M85 135 L100 110 L115 135" fill="#FFD700"/>
  <path d="M80 140 L100 105 L120 140" fill="#FF6347"/>
  <circle cx="100" cy="115" r="5" fill="#FFD700"/>
  <!-- Dancer arms with ribbons -->
  <line x1="80" y1="175" x2="50" y2="160" stroke="#DEB887" stroke-width="6"/>
  <line x1="120" y1="175" x2="150" y2="160" stroke="#DEB887" stroke-width="6"/>
  <path d="M50 160 Q40 140 55 130" stroke="#FF6B6B" stroke-width="3" fill="none"/>
  <path d="M150 160 Q160 140 145 130" stroke="#6BCB77" stroke-width="3" fill="none"/>
  <!-- Dancer 2 -->
  <circle cx="200" cy="160" r="18" fill="#DEB887"/>
  <path d="M182 178 L178 235 L188 235 L192 200 L200 235 L208 200 L212 235 L222 235 L218 178 Z" fill="#4169E1"/>
  <!-- Dancer 2 mask -->
  <rect x="188" y="155" width="24" height="15" fill="#FFD700" rx="3"/>
  <circle cx="194" cy="162" r="3" fill="#000"/>
  <circle cx="206" cy="162" r="3" fill="#000"/>
  <!-- Musician -->
  <circle cx="300" cy="170" r="15" fill="#DEB887"/>
  <rect x="288" y="185" width="24" height="50" fill="#8B4513"/>
  <!-- Drum -->
  <ellipse cx="330" cy="200" rx="25" ry="15" fill="#CD853F" stroke="#8B4513" stroke-width="2"/>
  <rect x="305" y="200" width="50" height="30" fill="#CD853F" stroke="#8B4513" stroke-width="2"/>
  <ellipse cx="330" cy="230" rx="25" ry="15" fill="#DEB887" stroke="#8B4513" stroke-width="2"/>
  <!-- Drumsticks -->
  <line x1="285" y1="185" x2="315" y2="210" stroke="#8B4513" stroke-width="4"/>
  <circle cx="315" cy="210" r="5" fill="#FFF"/>
  <!-- Fireworks -->
  <circle cx="50" cy="80" r="3" fill="#FF6B6B"/>
  <line x1="50" y1="80" x2="35" y2="65" stroke="#FF6B6B" stroke-width="2"/>
  <line x1="50" y1="80" x2="65" y2="65" stroke="#FF6B6B" stroke-width="2"/>
  <line x1="50" y1="80" x2="50" y2="60" stroke="#FF6B6B" stroke-width="2"/>
  <line x1="50" y1="80" x2="35" y2="80" stroke="#FF6B6B" stroke-width="2"/>
  <line x1="50" y1="80" x2="65" y2="80" stroke="#FF6B6B" stroke-width="2"/>
  <circle cx="350" cy="70" r="3" fill="#FFD93D"/>
  <line x1="350" y1="70" x2="335" y2="55" stroke="#FFD93D" stroke-width="2"/>
  <line x1="350" y1="70" x2="365" y2="55" stroke="#FFD93D" stroke-width="2"/>
  <line x1="350" y1="70" x2="350" y2="50" stroke="#FFD93D" stroke-width="2"/>
  <line x1="350" y1="70" x2="335" y2="70" stroke="#FFD93D" stroke-width="2"/>
  <line x1="350" y1="70" x2="365" y2="70" stroke="#FFD93D" stroke-width="2"/>
  <!-- Ground/stage -->
  <rect x="0" y="260" width="400" height="40" fill="#2C3E50"/>
  <rect x="0" y="260" width="400" height="5" fill="#34495E"/>
  <!-- Banner -->
  <path d="M150 270 Q200 285 250 270" stroke="#FF6B6B" stroke-width="4" fill="none"/>
  <path d="M160 275 Q200 288 240 275" stroke="#FFD93D" stroke-width="3" fill="none"/>
</svg>
